<svg xmlns="http://www.w3.org/2000/svg" xmlns:xlink="http://www.w3.org/1999/xlink" width="64" height="64">
    <defs>
        <g id="icon-router">
            <rect x="0" y="0" width="32" height="32" fill="black" stroke="none" />
            <g transform="translate(0 0)">
                <path d="M12 5c-2.105-.003-3.587 1.238-4.3 2.354a6.454 6.454 0 0 0-.888 2.226l-.02.123v12.137h3v-11.814c.01-.045.098-.531.434-1.057.352-.549.722-.97 1.77-.969 1.073.001 1.547.446 1.945.983.367.493.47.894.49.966v12.45s-.003 1.326.624 2.723c.626 1.396 2.196 3.019 4.627 3.068 2.45.05 4.063-1.603 4.689-3.022.626-1.418.621-2.77.621-2.77v-10.949h-3v10.913s-.032.84-.365 1.595c-.334.756-.61 1.259-1.885 1.233-1.295-.027-1.617-.557-1.95-1.297a4.623 4.623 0 0 1-.36-1.526v-12.873l-.045-.177s-.256-1.071-1.035-2.121c-.78-1.05-2.273-2.193-4.352-2.196z" stroke="none" fill="white" />
                <circle cx="8.5" cy="24" r="2" fill="none" stroke-width="2" stroke="white" />
                <circle cx="23.5" cy="9" r="2" fill="none" stroke-width="2" stroke="white" />
            </g>
        </g>

        <g id="icon-sticker">
            <rect x="0" y="0" width="32" height="32" fill="none" stroke="none" />
            <g transform="translate(-680 -285)">
                <path d="M690.764 306.811l5.71 7.913 5.014-7.694z" stroke="none" fill="white"/>
                <path transform="matrix(.88332 0 0 .88132 81.246 35.954)" d="M702.328 307.792l-6.02-.026-6.02.026-2.986-5.226-3.033-5.2 3.033-5.2 2.987-5.227 6.02.026 6.02-.026 2.986 5.226 3.033 5.2-3.033 5.2z" fill="none" stroke="white" />
            </g>
        </g>

        <g id="icon-poly">
            <rect x="0" y="0" width="32" height="32" fill="black" stroke="none" />
            <g>
                <path d="m6 14l9 -7l-2 16l14 -10l-3 12" fill="none" stroke-linecap="butt" stroke-linejoin="round" stroke="white" />

                <circle cx="5" cy="15" r="2" fill="none" stroke-width="2" stroke="white" />
                <circle cx="16" cy="5" r="2" fill="none" stroke-width="2" stroke="white" />
                <circle cx="12" cy="25" r="2" fill="none" stroke-width="2" stroke="white" />
                <circle cx="28" cy="11" r="2" fill="none" stroke-width="2" stroke="white" />
                <circle cx="24" cy="27" r="2" fill="none" stroke-width="2" stroke="white" />
            </g>

        </g>

        <g id="icon-shooter">
            <rect x="0" y="0" width="32" height="32" fill="black" stroke="none" />
            <g transform="translate(18 6)">
                <path d="m0 0l-4.391.054c-1.418.531-2.34 1.756-3.176 3.102h-5.178c-.68.317-1.351.655-1.455 2.584v11.49c.17 1.001.58 1.765 1.455 2.06h22.537c.746-.044 1.288-.426 1.68-1.06v-13.517c-.185-1.643-.916-1.65-1.68-1.557h-6.62c-.326-1.26-1.91-2.247-3.172-3.156zm-2.122 5.289c3.227 0 5.87 2.626 5.87 5.846s-2.643 5.845-5.87 5.845c-3.227 0-5.869-2.626-5.869-5.845 0-3.22 2.642-5.846 5.87-5.846zm0 1.998a3.844 3.844 0 0 0-3.869 3.848 3.842 3.842 0 0 0 3.87 3.845 3.84 3.84 0 0 0 3.866-3.845 3.842 3.842 0 0 0-3.867-3.848z" fill="white" stroke="none" />
            </g>
        </g>

        <g id="icon-trash">
            <g transform="matrix(4.2 0 0 4.2 -3 -2  )" stroke="none">
                <path fill="white" d="M2.783 3.626h2.923v2.923H2.783z"/>
                <path fill="white" d="M2.479 2.597h3.508v.748H2.479z"/>
                <path fill="white" d="M3.438 1.919h1.473v.865H3.438z"/>
                <path fill="black" d="M3.859 2.25h.631v.386h-.631z"/>
                <path fill="black" d="M3.134 3.906h.468v2.315h-.468z"/>
                <path fill="black" d="M-4.537 3.906h.444v2.315h-.444z" transform="scale(-1 1)"/>
                <path fill="black" d="M4.958 3.906h.444v2.315h-.444z"/>
            </g>
        </g>

        <g id="icon-save" stroke="none">
            <path fill="black" d="M0 0h32v32H0z"/>
            <path fill="white" d="M6.844 8.459V24h18.312V11.375H14.031V8.459z"/>
            <rect fill="black" width="2.74" height="5.038" x="14.63" y="14.411" stroke-width="3.603" />
            <path fill="black" d="M16.866 19.73l-4.315-.06-4.314.06 2.209-3.707 2.105-3.766 2.106 3.766z" transform="matrix(.45903 -.40628 .79506 .23456 -3.467 21.088)"/>
        </g>
    </defs>
</svg>
