<svg xmlns="http://www.w3.org/2000/svg" xmlns:xlink="http://www.w3.org/1999/xlink" width="64" height="64">
    <defs>
        <g id="icon-router">
            <rect x="0" y="0" width="32" height="32" fill="black" stroke="none" />
            <g transform="translate(0 0)">
                <path d="M12 5c-2.105-.003-3.587 1.238-4.3 2.354a6.454 6.454 0 0 0-.888 2.226l-.02.123v12.137h3v-11.814c.01-.045.098-.531.434-1.057.352-.549.722-.97 1.77-.969 1.073.001 1.547.446 1.945.983.367.493.47.894.49.966v12.45s-.003 1.326.624 2.723c.626 1.396 2.196 3.019 4.627 3.068 2.45.05 4.063-1.603 4.689-3.022.626-1.418.621-2.77.621-2.77v-10.949h-3v10.913s-.032.84-.365 1.595c-.334.756-.61 1.259-1.885 1.233-1.295-.027-1.617-.557-1.95-1.297a4.623 4.623 0 0 1-.36-1.526v-12.873l-.045-.177s-.256-1.071-1.035-2.121c-.78-1.05-2.273-2.193-4.352-2.196z" stroke="none" fill="white" />
                <circle cx="8.5" cy="24" r="2" fill="none" stroke-width="2" stroke="white" />
                <circle cx="23.5" cy="9" r="2" fill="none" stroke-width="2" stroke="white" />
            </g>
        </g>

        <g id="icon-sticker">
            <rect x="0" y="0" width="32" height="32" fill="none" stroke="none" />
            <g transform="translate(-680 -285)">
                <path d="M690.764 306.811l5.71 7.913 5.014-7.694z" stroke="none" fill="white"/>
                <path transform="matrix(.88332 0 0 .88132 81.246 35.954)" d="M702.328 307.792l-6.02-.026-6.02.026-2.986-5.226-3.033-5.2 3.033-5.2 2.987-5.227 6.02.026 6.02-.026 2.986 5.226 3.033 5.2-3.033 5.2z" fill="none" stroke="white" />
            </g>
        </g>

        <g id="icon-poly">
            <rect x="0" y="0" width="32" height="32" fill="black" stroke="none" />
            <g>
                <path d="m6 14l9 -7l-2 16l14 -10l-3 12" fill="none" stroke-linecap="butt" stroke-linejoin="round" stroke="white" />

                <circle cx="5" cy="15" r="2" fill="none" stroke-width="2" stroke="white" />
                <circle cx="16" cy="5" r="2" fill="none" stroke-width="2" stroke="white" />
                <circle cx="12" cy="25" r="2" fill="none" stroke-width="2" stroke="white" />
                <circle cx="28" cy="11" r="2" fill="none" stroke-width="2" stroke="white" />
                <circle cx="24" cy="27" r="2" fill="none" stroke-width="2" stroke="white" />
            </g>

        </g>

        <g id="icon-shooter">
            <rect x="0" y="0" width="32" height="32" fill="black" stroke="none" />
            <g transform="translate(18 6)">
                <path d="m0 0l-4.391.054c-1.418.531-2.34 1.756-3.176 3.102h-5.178c-.68.317-1.351.655-1.455 2.584v11.49c.17 1.001.58 1.765 1.455 2.06h22.537c.746-.044 1.288-.426 1.68-1.06v-13.517c-.185-1.643-.916-1.65-1.68-1.557h-6.62c-.326-1.26-1.91-2.247-3.172-3.156zm-2.122 5.289c3.227 0 5.87 2.626 5.87 5.846s-2.643 5.845-5.87 5.845c-3.227 0-5.869-2.626-5.869-5.845 0-3.22 2.642-5.846 5.87-5.846zm0 1.998a3.844 3.844 0 0 0-3.869 3.848 3.842 3.842 0 0 0 3.87 3.845 3.84 3.84 0 0 0 3.866-3.845 3.842 3.842 0 0 0-3.867-3.848z" fill="white" stroke="none" />
            </g>
        </g>

        <g id="icon-trash">
            <g transform="matrix(4.6 0 0 4.6 -4 -4)" stroke="none">
                <path fill="white" d="M2.783 3.626h2.923v2.923H2.783z"/>
                <path fill="white" d="M2.479 2.597h3.508v.748H2.479z"/>
                <path fill="white" d="M3.438 1.919h1.473v.865H3.438z"/>
                <path fill="black" d="M3.859 2.25h.631v.386h-.631z"/>
                <path fill="black" d="M3.134 3.906h.468v2.315h-.468z"/>
                <path fill="black" d="M-4.537 3.906h.444v2.315h-.444z" transform="scale(-1 1)"/>
                <path fill="black" d="M4.958 3.906h.444v2.315h-.444z"/>
            </g>
        </g>

        <g id="icon-save" stroke="none">
            <path fill="black" d="M0 0h32v32H0z"/>
            <path fill="white" d="M6.844 8.459V24h18.312V11.375H14.031V8.459z"/>
            <rect fill="black" width="2.74" height="5.038" x="14.63" y="14.411" stroke-width="3.603" />
            <path fill="black" d="M16.866 19.73l-4.315-.06-4.314.06 2.209-3.707 2.105-3.766 2.106 3.766z" transform="matrix(.45903 -.40628 .79506 .23456 -3.467 21.088)"/>
        </g>

        <svg xmlns="http://www.w3.org/2000/svg" id="svg8" width="600" height="32">
            <g id="g4853" transform="translate(-29.985 30.509)">
                <rect id="rect4832" width="4.035" height="1.75" x="16.495" y="-28.417" fill="#fff" stroke-opacity=".941" stroke-width=".115" rx="0" ry="0"/>
                <path id="rect4834" fill="#fff" stroke-opacity=".941" stroke-width=".247" d="M15.535-28.417h5.616v.933h-5.616z"/>
                <path id="rect4836" fill="#fff" stroke-opacity=".941" stroke-width=".293" d="M16.495-29.706v1.29h.671v-.761h2.66v.76h.67v-1.29z"/>
                <path id="path4841" fill="none" fill-rule="evenodd" stroke="#fff" stroke-width=".753" d="M16.886-27.49c.092.03-.101 1.171.111 2.499.213 1.328-.477 1.846-.477 1.846"/>
                <path id="path4843" fill="none" fill-rule="evenodd" stroke="#fff" stroke-width=".753" d="M18.496-27.49c.093.03-.101 1.171.112 2.499.212 1.328-.478 1.846-.478 1.846"/>
                <path id="path4845" fill="none" fill-rule="evenodd" stroke="#fff" stroke-width=".753" d="M20.107-27.49c.092.03-.102 1.171.111 2.499s-.477 1.846-.477 1.846"/>
            </g>
            <g id="g4909" transform="translate(-.054 .888)">
                <path id="rect4855" fill="#fff" stroke-opacity=".941" stroke-width=".811" d="M16.272-27.384h4.266l-.397 4.3h-3.538z"/>
                <path id="rect4857" fill="#fff" stroke-opacity=".941" stroke-width=".43" d="M15.809-28.939h5.192v.992h-5.192z"/>
                <path id="rect4879" fill="#fff" stroke-opacity=".941" stroke-width=".502" d="M17.246-29.945v1.123h.586v-.66h1.005v.66h.587v-1.123z"/>
                <g id="g4900">
                    <path id="path4885" fill-rule="evenodd" stroke-width=".265" d="M16.885-26.893l.187 3.508h.538l-.14-3.508z"/>
                    <path id="path4887" fill-rule="evenodd" stroke-width=".265" d="M19.983-26.893l-.187 3.508h-.538l.14-3.508z"/>
                    <path id="rect4889" stroke-opacity=".941" stroke-width=".821" d="M18.165-26.881h.538v3.473h-.538z"/>
                </g>
            </g>
            <g id="icon-save" stroke-opacity=".941" transform="translate(-64)">
                <path id="rect4766" stroke-width=".265" d="M0 0h32v32H0z"/>
                <path id="rect4986" fill="#fff" stroke-width="2.491" d="M6.844 8.459V24h18.312V11.375H14.031V8.459z"/>
                <rect id="rect4991" width="2.74" height="5.038" x="14.63" y="14.411" stroke-width="3.603" rx="0" ry="0"/>
                <path id="path4993" stroke-width="3" d="M16.866 19.73l-4.315-.06-4.314.06 2.209-3.707 2.105-3.766 2.106 3.766z" transform="matrix(.45903 -.40628 .79506 .23456 -3.467 21.088)"/>
            </g>
            <g id="g4982" stroke-opacity=".941" transform="translate(-32)">
                <path id="rect4964" stroke-width=".265" d="M0 0h32v32H0z"/>
                <g id="g4980" transform="matrix(3.77953 0 0 3.77953 .002 -.002)">
                    <path id="rect4966" fill="#fff" stroke-width=".794" d="M2.783 3.626h2.923v2.923H2.783z"/>
                    <path id="rect4968" fill="#fff" stroke-width=".794" d="M2.479 2.597h3.508v.748H2.479z"/>
                    <path id="rect4970" fill="#fff" stroke-width=".794" d="M3.438 1.919h1.473v.865H3.438z"/>
                    <path id="rect4972" stroke-width=".684" d="M3.859 2.25h.631v.386h-.631z"/>
                    <path id="rect4974" stroke-width="1.442" d="M3.134 3.906h.468v2.315h-.468z"/>
                    <path id="rect4976" stroke-width="1.405" d="M-4.537 3.906h.444v2.315h-.444z" transform="scale(-1 1)"/>
                    <path id="rect4978" stroke-width="1.405" d="M4.958 3.906h.444v2.315h-.444z"/>
                </g>
            </g>

            <g id="g5188" transform="translate(-96)">
                <path id="rect5180" stroke-opacity=".941" stroke-width=".265" d="M0 0h32v32H0z"/>
                <g id="g5322" fill="#fff" transform="translate(7.066 7.065) scale(.04494)">
                    <path id="path5267" stroke-width="445.017" d="M313.1 147.875c-6.057 0-11.962.654-17.661 1.871l-15.805-53.435 37.842-2.565a9.275 9.275 0 0 1 9.602 6.932 9.246 9.246 0 0 1-1.45 7.728 9.243 9.243 0 0 1-6.865 3.834l-9.126.652a6.5 6.5 0 0 0-6.02 6.947c.256 3.581 3.361 6.289 6.947 6.02l9.126-.652a22.21 22.21 0 0 0 16.493-9.21 22.21 22.21 0 0 0 3.484-18.566c-2.677-10.375-12.376-17.364-23.069-16.654l-45.936 3.114a6.5 6.5 0 0 0-5.793 8.329l6.405 21.656H145.477l-6.316-12H155.5a6.5 6.5 0 1 0 0-13h-47a6.5 6.5 0 1 0 0 13h16.086l9.542 18.349-18.836 33.485a84.026 84.026 0 0 0-30.792-5.834c-46.593 0-84.5 37.906-84.5 84.5s37.907 84.5 84.5 84.5c44.404 0 80.892-34.436 84.225-78h31.776a6.5 6.5 0 0 0 5.511-3.055l68.779-110.047 8.185 27.672c-31.758 12.162-54.376 42.945-54.376 78.93 0 46.594 37.907 84.5 84.5 84.5s84.5-37.906 84.5-84.5-37.907-84.501-84.5-84.501zm-228.6 156c-39.425 0-71.5-32.075-71.5-71.5s32.075-71.5 71.5-71.5c8.549 0 16.75 1.513 24.355 4.276l-31.482 55.968c-3.726 2.365-6.206 6.516-6.206 11.256 0 7.363 5.969 13.333 13.333 13.333 5.002 0 9.354-2.759 11.636-6.833h59.556c-3.297 36.388-33.959 65-71.192 65zm11.636-78a13.384 13.384 0 0 0-4.025-4.439l28.528-50.717c19.37 11.397 32.922 31.647 35.052 55.156zm72.589 0c-2.17-28.365-18.393-52.845-41.715-66.482l14.327-25.471 48.396 91.953zm32.258-6.538l-48.665-92.462h106.454zM313.1 303.875c-39.425 0-71.5-32.075-71.5-71.5 0-30.093 18.697-55.885 45.077-66.418l16.89 57.105a13.284 13.284 0 0 0-3.8 9.313c0 7.363 5.969 13.333 13.333 13.333s13.333-5.97 13.333-13.333c0-6.354-4.449-11.661-10.399-12.999l-16.895-57.123a71.624 71.624 0 0 1 13.962-1.378c39.425 0 71.5 32.075 71.5 71.5s-32.076 71.5-71.501 71.5z"/>
                </g>
            </g>

            <g id="icon-cycle">
                <path fill="black" d="M0 0h32v32H0z"/>
                <g id="g5604" fill="#fff" transform="matrix(-.36615 0 0 .36615 24.543 7.457)">
                    <g id="g5527">
                        <g id="g5495">
                            <path id="path5483" d="M37.687 24.66c-4.945 0-8.973 4.025-8.973 8.975 0 4.95 4.026 8.974 8.973 8.974 4.95 0 8.977-4.024 8.977-8.974s-4.027-8.975-8.977-8.975zm0 15.384a6.417 6.417 0 0 1-6.409-6.409 6.418 6.418 0 0 1 6.409-6.41 6.417 6.417 0 0 1 6.411 6.41 6.417 6.417 0 0 1-6.411 6.409z"/>
                            <path id="path5485" d="M23.588 15.501v.01h8.047c-2.375-2.4-5.273-5.251-5.99-5.578-1.257-.575-3.966 1.462-4.547 1.748-.532.283-.954.699-1.043 1.236l-2.112 5.927-6.167.069c-1.811.485-.465 2.065-.465 2.065l3.097.041-.295 1.405-1.803 2.989a8.914 8.914 0 0 0-3.333-.648C4.027 24.765 0 28.792 0 33.741c0 4.947 4.026 8.974 8.977 8.974 4.948 0 8.975-4.026 8.975-8.974a8.956 8.956 0 0 0-3.423-7.038l2.005-3.326.487-2.322 2.41.03c.479-.136.833-.538.912-1.029l2.603-4.074zM15.386 33.74a6.417 6.417 0 0 1-6.409 6.409c-3.534 0-6.411-2.876-6.411-6.409a6.419 6.419 0 0 1 6.411-6.411c.694 0 1.36.114 1.986.32l-3.579 5.939 2.197 1.323 3.607-5.989a6.386 6.386 0 0 1 2.198 4.818z"/>
                            <path id="path5487" d="M32.24 23.139s2.468-2.578 2.691-2.968c.225-.392.229-.872.007-1.265 0 0-.725-.76-1.771-1.832v.014h-8.949l4.281 3.716-6.367 9.947a1.264 1.264 0 0 0-.104 1.045l2.563 7.692 3.072-.17-1.741-7.787z"/>
                            <circle id="circle5489" cx="19.703" cy="7.384" r="3.435"/>
                            <path id="path5491" d="M32.845 5.919c-1.06-.744-2.366-.789-3.123-.034l-1.484 1.487c-.756.756-.711 2.062.03 3.124z"/>
                            <path id="path5493" d="M33.007 15.317c1.116 1.116 2.73 1.311 3.607.436l1.485-1.488c.877-.876.685-2.491-.434-3.606l-4.081-4.081-4.659 4.658z"/>
                        </g>
                    </g>
                </g>
            </g>

            <g id="icon-logo">
                <path fill="black" stroke="none" d="M0 0h32v32H0z"/>
                <g transform="matrix(1 0 0 1 2 -1)">
                    <path fill="none" stroke="#fff" stroke-width="2" d="M23.423 9.284c-6.673-4.127-12.713-4.175-19.269 0 .174 4.944-.354 13.294 9.635 17.855 10.323-4.9 9.545-13.305 9.634-17.855z"/>
                    <path fill="#fff" stroke="none" d="M13.435 5.925v21.037s10.695-3.27 9.988-17.678c0 0-3.447-2.828-9.988-3.359z"/>
                    <path fill="none" stroke-width="2" stroke="#fff" d="M5.773 15.118L15.7 6.19"/>
                    <path fill="none" stroke-width="2" stroke="#fff" d="M6.276 20.333l7.778-7.778"/>
                    <path fill="none" stroke-width="2" stroke="#fff" d="M8.574 23.691c.442-.53 5.612-5.612 5.612-5.612"/>
                    <path fill="none" stroke-width="2" stroke="#fff" d="M11.932 25.636l2.343-2.342"/>
                </g>
            </g>

            <g id="icon-locate">
                <path id="rect5819" stroke-opacity=".941" stroke-width=".265" d="M0 0h32v32H0z" fill="black"/>
                <circle id="path5839" cx="16" cy="16" r="5.127" fill="none" stroke="#fff" stroke-width="2.5"/>
                <path id="path5841" fill="none" fill-rule="evenodd" stroke="#fff" stroke-width="2.5" d="M16.087 6.854v4.242"/>
                <path id="path5843" fill="none" fill-rule="evenodd" stroke="#fff" stroke-width="2.5" d="M16.087 20.686v4.243"/>
                <path id="path5845" fill="none" fill-rule="evenodd" stroke="#fff" stroke-width="2.5" d="M20.948 16.134h4.243"/>
                <path id="path5847" fill="none" fill-rule="evenodd" stroke="#fff" stroke-width="2.5" d="M6.63 16.134h4.242"/>
            </g>

            <g id="icon-shot-2" stroke="none" transform="scale(1.2) translate(-2 -2)">
                <path id="rect5819" stroke-opacity=".941" stroke-width=".265" d="M0 0h32v32H0z" fill="black"/>
                <rect id="rect6617" width="21" height="13.89" x="6.25" y="9.833" fill="#fff" rx="2" ry="2"/>
                <path id="rect6619" fill="#fff" stroke-width="1.979" d="M13.812 7.009h6.282c.45 0 .749.528 1.147 1.039l3.096 3.974c.398.51-3.793 6.989-4.243 6.989h-6.282c-.45 0-4.889-6.747-4.475-7.24l3.19-3.802c.415-.493.836-.96 1.285-.96z"/>
                <circle id="path6621" cx="16.627" cy="16.311" r="6.158" fill="black"/>
                <circle id="circle6628" cx="16.627" cy="16.311" r="3.533" fill="#fff" />
            </g>

            <g id="icon-trash-2" stroke="none">
                <g transform="translate(-4 -3) scale(3.82445) scale(1.2)">
                    <rect id="rect4966" width="3.125" height="2.893" x="2.671" y="3.751" fill="#fff" rx=".36" ry=".403"/>
                    <rect id="rect4968" width="3.663" height=".87" x="2.401" y="2.423" fill="#fff" rx=".435" ry=".435"/>
                    <rect id="rect4970" width="2.924" height="1.306" x="2.771" y="1.698" fill="#fff" rx=".653" ry=".653"/>
                    <rect id="rect4972" width="1.933" height=".523" x="3.266" y="2.114" fill="black" rx=".261" ry=".261"/>

                    <g id="g4918" stroke-width=".523" transform="matrix(1.3497 0 0 1.3497 -1.613 -1.674)">
                        <rect id="rect4912" width="2.059" height=".425" x="5.622" y=".289" rx=".237" ry=".21" transform="rotate(45)" fill="black"/>
                        <rect id="rect4914" width="2.047" height=".389" x="-.491" y="-6.803" rx=".237" ry=".195" transform="rotate(135)" fill="black"/>
                    </g>
                </g>
            </g>

            <g id="icon-logo-2" transform="scale(1.2) translate(-3 -2)">
                <path id="rect5611" stroke-opacity=".941" stroke-width=".265" d="M0 0h32v32H0z" fill="black" stroke="none"/>
                <g id="g5792" fill="none" stroke="#fff" stroke-width="2.37" transform="matrix(.84382 0 0 .84382 4.366 1.93)">
                    <path id="path5774" fill-rule="evenodd" d="M22.399 10.08c-5.964-3.689-11.363-3.732-17.222 0 .155 4.418-.316 11.882 8.61 15.957 9.228-4.38 8.532-11.89 8.612-15.957z"/>
                </g>
                <g id="g8284" fill="#fff" stroke-width="3.052" transform="matrix(.40236 0 0 .40236 10.45 8.978)">
                    <path d="M22.399 10.08c-5.964-3.689-11.363-3.732-17.222 0 .155 4.418-.316 11.882 8.61 15.957 9.228-4.38 8.532-11.89 8.612-15.957z" stroke="none" />
                </g>
            </g>

            <g id="icon-sticker-2" transform="scale(1.2) translate(-3 -2)" stroke="none">
                <g id="g4867" transform="matrix(.94996 0 0 .94996 -.16 .083)">
                    <path id="path4859" fill="#fff" fill-rule="evenodd" stroke-width=".767" d="M13.47 22.847l3.045 5.275 3.12-5.405z"/>
                    <circle id="path4863" cx="16.552" cy="14.98" r="8.712" fill="#fff" stroke-width="1.851"/>
                    <circle id="circle4869" cx="16.552" cy="14.98" r="5" fill="black" />
                </g>
            </g>

            <g id="icon-route-2" transform="scale(1.2) translate(32 -2)" stroke="none">
                <g fill="white">
                    <circle id="path5642" cx="-24.357" cy="23.576" r="2.507" fill="#fff" stroke-width="4.363"/>
                    <path id="path5644" fill="none" fill-rule="evenodd" stroke="#fff" stroke-width="2.621" d="M-24.289 21.588V10.61c0-4.22 6.62-4.194 6.62 0V21.42c0 4.011 6.828 4.027 6.828 0v-10.98"/>
                    <circle id="circle5646" cx="-10.93" cy="8.462" r="2.507" fill="#fff" stroke-width="4.363"/>
                </g>
            </g>

            <g id="icon-poly-2" transform="scale(1.2) translate(-3 -2)" stroke="none">
                <g fill="white">
                    <path id="path6375" fill="none" fill-rule="evenodd" stroke="#fff" stroke-linejoin="round" stroke-width="2.387" d="M7.924 12.991l8.569-4.989-6.55 14.587 13.762-7.974-3.958 9.12"/>
                    <circle id="path6363" cx="14.711" cy="-4.523" r="2.387" fill="#fff" stroke-width="5.304" transform="rotate(75)"/>
                    <circle id="circle6367" cx="12.17" cy="-13.883" r="2.387" fill="#fff" stroke-width="5.304" transform="rotate(75)"/>
                    <circle id="circle6371" cx="20.342" cy="-19.194" r="2.387" fill="#fff" stroke-width="5.304" transform="rotate(75)"/>
                    <circle id="circle6373" cx="24.138" cy="-3.701" r="2.387" fill="#fff" stroke-width="5.304" transform="rotate(75)"/>
                    <circle id="circle6774" cx="27.918" cy="-13.025" r="2.387" fill="#fff" stroke-width="5.304" transform="rotate(75)"/>
                </g>
            </g>
        </svg>
    </defs>
</svg>
