<?xml version="1.0" encoding="UTF-8" standalone="no"?>
<!-- Created with Inkscape (http://www.inkscape.org/) -->

<svg
   xmlns:dc="http://purl.org/dc/elements/1.1/"
   xmlns:cc="http://creativecommons.org/ns#"
   xmlns:rdf="http://www.w3.org/1999/02/22-rdf-syntax-ns#"
   xmlns:svg="http://www.w3.org/2000/svg"
   xmlns="http://www.w3.org/2000/svg"
   xmlns:xlink="http://www.w3.org/1999/xlink"
   xmlns:sodipodi="http://sodipodi.sourceforge.net/DTD/sodipodi-0.dtd"
   xmlns:inkscape="http://www.inkscape.org/namespaces/inkscape"
   width="600"
   height="32"
   viewBox="0 0 600 32"
   version="1.1"
   id="svg8"
   inkscape:version="0.92.2 5c3e80d, 2017-08-06"
   sodipodi:docname="icons_draft.svg">
  <defs
     id="defs2" />
  <sodipodi:namedview
     id="base"
     pagecolor="#333333"
     bordercolor="#666666"
     borderopacity="1.0"
     inkscape:pageopacity="0"
     inkscape:pageshadow="2"
     inkscape:zoom="11.313708"
     inkscape:cx="-2.2387215"
     inkscape:cy="4.6847445"
     inkscape:document-units="px"
     inkscape:current-layer="svg8"
     showgrid="false"
     inkscape:window-width="1920"
     inkscape:window-height="1036"
     inkscape:window-x="0"
     inkscape:window-y="0"
     inkscape:window-maximized="1"
     units="px"
     inkscape:showpageshadow="false"
     inkscape:snap-global="true" />
  <metadata
     id="metadata5">
    <rdf:RDF>
      <cc:Work
         rdf:about="">
        <dc:format>image/svg+xml</dc:format>
        <dc:type
           rdf:resource="http://purl.org/dc/dcmitype/StillImage" />
        <dc:title></dc:title>
      </cc:Work>
    </rdf:RDF>
  </metadata>
  <g
     inkscape:label="Layer 1"
     inkscape:groupmode="layer"
     id="layer1"
     transform="translate(0,-288.53332)" />
  <image
     sodipodi:absref="/Users/user/Desktop/Screen Shot 2018-08-24 at 10.18.53.png"
     y="-102.07228"
     x="-88.096359"
     id="image4827"
     xlink:href="file:///Users/user/Desktop/Screen%20Shot%202018-08-24%20at%2010.18.53.png"
     preserveAspectRatio="none"
     height="85.460419"
     width="191.82292" />
  <g
     id="g4853"
     transform="translate(-29.984674,30.508559)">
    <rect
       ry="0"
       rx="0"
       y="-28.416527"
       x="16.494829"
       height="1.7498444"
       width="4.0352693"
       id="rect4832"
       style="opacity:1;fill:#ffffff;fill-opacity:1;stroke:none;stroke-width:0.11536483;stroke-miterlimit:4;stroke-dasharray:none;stroke-opacity:0.94117647" />
    <rect
       y="-28.416527"
       x="15.535068"
       height="0.93293262"
       width="5.6158781"
       id="rect4834"
       style="opacity:1;fill:#ffffff;fill-opacity:1;stroke:none;stroke-width:0.24673447;stroke-miterlimit:4;stroke-dasharray:none;stroke-opacity:0.94117647" />
    <path
       inkscape:connector-curvature="0"
       id="rect4836"
       d="m 16.494829,-29.706371 v 1.289844 h 0.671392 v -0.760677 h 2.659039 v 0.760677 h 0.671392 v -1.289844 z"
       style="opacity:1;fill:#ffffff;fill-opacity:1;stroke:none;stroke-width:0.29250789;stroke-miterlimit:4;stroke-dasharray:none;stroke-opacity:0.94117647" />
    <path
       sodipodi:nodetypes="czc"
       inkscape:connector-curvature="0"
       id="path4841"
       d="m 16.886139,-27.489105 c 0.09235,0.02913 -0.101567,1.170389 0.111157,2.498067 0.212724,1.327679 -0.477168,1.845719 -0.477168,1.845719"
       style="fill:none;fill-rule:evenodd;stroke:#ffffff;stroke-width:0.75342119;stroke-linecap:butt;stroke-linejoin:miter;stroke-miterlimit:4;stroke-dasharray:none;stroke-opacity:1" />
    <path
       style="fill:none;fill-rule:evenodd;stroke:#ffffff;stroke-width:0.75342119;stroke-linecap:butt;stroke-linejoin:miter;stroke-miterlimit:4;stroke-dasharray:none;stroke-opacity:1"
       d="m 18.496493,-27.489105 c 0.09235,0.02913 -0.101566,1.170389 0.111157,2.498067 0.212724,1.327679 -0.477168,1.845719 -0.477168,1.845719"
       id="path4843"
       inkscape:connector-curvature="0"
       sodipodi:nodetypes="czc" />
    <path
       sodipodi:nodetypes="czc"
       inkscape:connector-curvature="0"
       id="path4845"
       d="m 20.106847,-27.489105 c 0.09235,0.02913 -0.101566,1.170389 0.111158,2.498067 0.212723,1.327679 -0.477169,1.845719 -0.477169,1.845719"
       style="fill:none;fill-rule:evenodd;stroke:#ffffff;stroke-width:0.75342119;stroke-linecap:butt;stroke-linejoin:miter;stroke-miterlimit:4;stroke-dasharray:none;stroke-opacity:1" />
  </g>
  <g
     id="g4909"
     transform="translate(-0.0543344,0.88815665)">
    <path
       sodipodi:nodetypes="ccccc"
       inkscape:connector-curvature="0"
       id="rect4855"
       d="m 16.271875,-27.384377 h 4.266407 l -0.396875,4.29948 h -3.538803 z"
       style="opacity:1;fill:#ffffff;fill-opacity:1;stroke:none;stroke-width:0.81110585;stroke-miterlimit:4;stroke-dasharray:none;stroke-opacity:0.94117647" />
    <rect
       style="opacity:1;fill:#ffffff;fill-opacity:1;stroke:none;stroke-width:0.42985451;stroke-miterlimit:4;stroke-dasharray:none;stroke-opacity:0.94117647"
       id="rect4857"
       width="5.1924481"
       height="0.99218786"
       x="15.808854"
       y="-28.938803" />
    <path
       inkscape:connector-curvature="0"
       id="rect4879"
       d="m 17.24555,-29.944984 v 1.122495 h 0.586422 v -0.659725 h 1.005136 v 0.659725 h 0.586422 v -1.122495 z"
       style="opacity:1;fill:#ffffff;fill-opacity:1;stroke:none;stroke-width:0.50171793;stroke-miterlimit:4;stroke-dasharray:none;stroke-opacity:0.94117647" />
    <g
       id="g4900">
      <path
         style="fill:#000000;fill-rule:evenodd;stroke:none;stroke-width:0.26458335px;stroke-linecap:butt;stroke-linejoin:miter;stroke-opacity:1"
         d="m 16.884753,-26.893092 0.187089,3.507912 h 0.537879 l -0.140315,-3.507912 z"
         id="path4885"
         inkscape:connector-curvature="0"
         sodipodi:nodetypes="ccccc" />
      <path
         sodipodi:nodetypes="ccccc"
         inkscape:connector-curvature="0"
         id="path4887"
         d="m 19.98341,-26.893092 -0.187089,3.507912 h -0.537879 l 0.140315,-3.507912 z"
         style="fill:#000000;fill-rule:evenodd;stroke:none;stroke-width:0.26458335px;stroke-linecap:butt;stroke-linejoin:miter;stroke-opacity:1" />
      <rect
         style="opacity:1;fill:#000000;fill-opacity:1;stroke:none;stroke-width:0.8209722;stroke-miterlimit:4;stroke-dasharray:none;stroke-opacity:0.94117647"
         id="rect4889"
         width="0.53787994"
         height="3.4728332"
         x="18.165142"
         y="-26.881401" />
    </g>
  </g>
  <g
     id="icon-save"
     transform="translate(-64)">
    <rect
       y="0"
       x="0"
       height="32"
       width="32"
       id="rect4766"
       style="opacity:1;fill:#000000;fill-opacity:1;stroke:none;stroke-width:0.26458332;stroke-miterlimit:4;stroke-dasharray:none;stroke-opacity:0.94117647" />
    <path
       style="opacity:1;fill:#ffffff;fill-opacity:1;stroke:none;stroke-width:2.49093914;stroke-miterlimit:4;stroke-dasharray:none;stroke-opacity:0.94117647"
       d="M 6.84375,8.458984 V 11.375 13.416016 24 h 18.3125 V 11.375 h -11.125 V 8.458984 Z"
       id="rect4986"
       inkscape:connector-curvature="0" />
    <rect
       style="opacity:1;fill:#000000;fill-opacity:1;stroke:none;stroke-width:3.60305977;stroke-miterlimit:4;stroke-dasharray:none;stroke-opacity:0.94117647"
       id="rect4991"
       width="2.7400389"
       height="5.038136"
       x="14.629981"
       y="14.410719"
       rx="0"
       ry="0" />
    <path
       sodipodi:type="star"
       style="opacity:1;fill:#000000;fill-opacity:1;stroke:none;stroke-width:3;stroke-miterlimit:4;stroke-dasharray:none;stroke-opacity:0.94117647"
       id="path4993"
       sodipodi:sides="3"
       sodipodi:cx="12.551145"
       sodipodi:cy="17.239145"
       sodipodi:r1="4.9819989"
       sodipodi:r2="2.4313235"
       sodipodi:arg1="0.52359878"
       sodipodi:arg2="1.5707963"
       inkscape:flatsided="false"
       inkscape:rounded="0"
       inkscape:randomized="0"
       d="m 16.865682,19.730145 -4.314537,-0.05968 -4.314538,0.05968 2.20895,-3.706661 2.105588,-3.766338 2.105588,3.766337 z"
       transform="matrix(0.45902766,-0.40627691,0.79505923,0.23456409,-3.4674638,21.088123)" />
  </g>
  <g
     id="g4982"
     transform="translate(-32)">
    <rect
       style="opacity:1;fill:#000000;fill-opacity:1;stroke:none;stroke-width:0.26458332;stroke-miterlimit:4;stroke-dasharray:none;stroke-opacity:0.94117647"
       id="rect4964"
       width="32"
       height="32"
       x="0"
       y="0" />
    <g
       transform="matrix(3.7795278,0,0,3.7795278,0.00170832,-0.00171071)"
       id="g4980">
      <rect
         style="opacity:1;fill:#ffffff;fill-opacity:1;stroke:none;stroke-width:0.79375005;stroke-miterlimit:4;stroke-dasharray:none;stroke-opacity:0.94117647"
         id="rect4966"
         width="2.9232607"
         height="2.9232607"
         x="2.782944"
         y="3.6257474" />
      <rect
         style="opacity:1;fill:#ffffff;fill-opacity:1;stroke:none;stroke-width:0.79375005;stroke-miterlimit:4;stroke-dasharray:none;stroke-opacity:0.94117647"
         id="rect4968"
         width="3.5079126"
         height="0.74835467"
         x="2.4789248"
         y="2.5967598" />
      <rect
         style="opacity:1;fill:#ffffff;fill-opacity:1;stroke:none;stroke-width:0.79375005;stroke-miterlimit:4;stroke-dasharray:none;stroke-opacity:0.94117647"
         id="rect4970"
         width="1.4733232"
         height="0.8652851"
         x="3.4377544"
         y="1.9185632" />
      <rect
         style="opacity:1;fill:#000000;fill-opacity:1;stroke:none;stroke-width:0.68426704;stroke-miterlimit:4;stroke-dasharray:none;stroke-opacity:0.94117647"
         id="rect4972"
         width="0.63142425"
         height="0.38621464"
         x="3.8587039"
         y="2.2499807" />
      <rect
         y="3.9063804"
         x="3.1337352"
         height="2.3152225"
         width="0.46772167"
         id="rect4974"
         style="opacity:1;fill:#000000;fill-opacity:1;stroke:none;stroke-width:1.44191849;stroke-miterlimit:4;stroke-dasharray:none;stroke-opacity:0.94117647" />
      <rect
         style="opacity:1;fill:#000000;fill-opacity:1;stroke:none;stroke-width:1.40540838;stroke-miterlimit:4;stroke-dasharray:none;stroke-opacity:0.94117647"
         id="rect4976"
         width="0.44433555"
         height="2.3152225"
         x="-4.5369005"
         y="3.9063804"
         transform="scale(-1,1)" />
      <rect
         y="3.9063804"
         x="4.95785"
         height="2.3152225"
         width="0.44433564"
         id="rect4978"
         style="opacity:1;fill:#000000;fill-opacity:1;stroke:none;stroke-width:1.4054085;stroke-miterlimit:4;stroke-dasharray:none;stroke-opacity:0.94117647" />
    </g>
  </g>
  <g
     id="g5188"
     transform="translate(-96)">
    <rect
       style="opacity:1;fill:#000000;fill-opacity:1;stroke:none;stroke-width:0.26458332;stroke-miterlimit:4;stroke-dasharray:none;stroke-opacity:0.94117647"
       id="rect5180"
       width="32"
       height="32"
       x="0"
       y="0" />
    <g
       id="g5322"
       transform="matrix(0.04494207,0,0,0.04494207,7.0655171,7.0654393)"
       style="fill:#ffffff">
      <path
         id="path5267"
         d="m 313.1,147.875 c -6.057,0 -11.962,0.654 -17.661,1.871 l -15.805,-53.435 37.842,-2.565 c 4.447,-0.301 8.487,2.613 9.602,6.932 0.689,2.671 0.161,5.488 -1.45,7.728 -1.611,2.24 -4.113,3.638 -6.865,3.834 l -9.126,0.652 c -3.581,0.256 -6.276,3.366 -6.02,6.947 0.256,3.581 3.361,6.289 6.947,6.02 l 9.126,-0.652 c 6.611,-0.472 12.623,-3.829 16.493,-9.21 3.87,-5.382 5.14,-12.148 3.484,-18.566 C 336.99,87.056 327.291,80.067 316.598,80.777 l -45.936,3.114 c -1.969,0.134 -3.77,1.154 -4.896,2.773 -1.127,1.62 -1.457,3.663 -0.897,5.556 l 6.405,21.656 H 145.477 l -6.316,-12 H 155.5 c 3.59,0 6.5,-2.91 6.5,-6.5 0,-3.59 -2.91,-6.5 -6.5,-6.5 h -47 c -3.59,0 -6.5,2.91 -6.5,6.5 0,3.59 2.91,6.5 6.5,6.5 h 16.086 l 9.542,18.349 -18.836,33.485 c -9.549,-3.751 -19.929,-5.834 -30.792,-5.834 -46.593,0 -84.5,37.906 -84.5,84.5 0,46.594 37.907,84.5 84.5,84.5 44.404,0 80.892,-34.436 84.225,-78 0,0 31.695,0 31.776,0 2.235,0 4.32,-1.15 5.511,-3.055 l 68.779,-110.047 8.185,27.672 c -31.758,12.162 -54.376,42.945 -54.376,78.93 0,46.594 37.907,84.5 84.5,84.5 46.593,0 84.5,-37.906 84.5,-84.5 0,-46.594 -37.907,-84.501 -84.5,-84.501 z m -228.6,156 c -39.425,0 -71.5,-32.075 -71.5,-71.5 0,-39.425 32.075,-71.5 71.5,-71.5 8.549,0 16.75,1.513 24.355,4.276 l -31.482,55.968 c -3.726,2.365 -6.206,6.516 -6.206,11.256 0,7.363 5.969,13.333 13.333,13.333 5.002,0 9.354,-2.759 11.636,-6.833 h 59.556 c -3.297,36.388 -33.959,65 -71.192,65 z m 11.636,-78 c -0.99,-1.769 -2.37,-3.285 -4.025,-4.439 l 28.528,-50.717 c 19.37,11.397 32.922,31.647 35.052,55.156 z m 72.589,0 C 166.555,197.51 150.332,173.03 127.01,159.393 l 14.327,-25.471 48.396,91.953 z m 32.258,-6.538 -48.665,-92.462 H 258.772 Z M 313.1,303.875 c -39.425,0 -71.5,-32.075 -71.5,-71.5 0,-30.093 18.697,-55.885 45.077,-66.418 l 16.89,57.105 c -2.348,2.403 -3.8,5.687 -3.8,9.313 0,7.363 5.969,13.333 13.333,13.333 7.364,0 13.333,-5.97 13.333,-13.333 0,-6.354 -4.449,-11.661 -10.399,-12.999 l -16.895,-57.123 c 4.518,-0.897 9.184,-1.378 13.962,-1.378 39.425,0 71.5,32.075 71.5,71.5 0,39.425 -32.076,71.5 -71.501,71.5 z"
         inkscape:connector-curvature="0"
         style="fill:#ffffff;stroke-width:445.01733398;stroke-miterlimit:4;stroke-dasharray:none" />
      <g
         id="g5269"
         style="fill:#ffffff" />
      <g
         id="g5271"
         style="fill:#ffffff" />
      <g
         id="g5273"
         style="fill:#ffffff" />
      <g
         id="g5275"
         style="fill:#ffffff" />
      <g
         id="g5277"
         style="fill:#ffffff" />
      <g
         id="g5279"
         style="fill:#ffffff" />
      <g
         id="g5281"
         style="fill:#ffffff" />
      <g
         id="g5283"
         style="fill:#ffffff" />
      <g
         id="g5285"
         style="fill:#ffffff" />
      <g
         id="g5287"
         style="fill:#ffffff" />
      <g
         id="g5289"
         style="fill:#ffffff" />
      <g
         id="g5291"
         style="fill:#ffffff" />
      <g
         id="g5293"
         style="fill:#ffffff" />
      <g
         id="g5295"
         style="fill:#ffffff" />
      <g
         id="g5297"
         style="fill:#ffffff" />
    </g>
  </g>
  <g
     id="g5360"
     transform="translate(-128)">
    <rect
       y="0"
       x="0"
       height="32"
       width="32"
       id="rect5324"
       style="opacity:1;fill:#000000;fill-opacity:1;stroke:none;stroke-width:0.26458332;stroke-miterlimit:4;stroke-dasharray:none;stroke-opacity:0.94117647" />
    <g
       id="g5604"
       transform="matrix(-0.3661466,0,0,0.3661466,24.542932,7.4570675)"
       style="fill:#ffffff">
      <g
         id="g5527"
         style="fill:#ffffff">
        <g
           id="g5495"
           style="fill:#ffffff">
          <path
             id="path5483"
             d="m 37.687,24.66 c -4.945,0 -8.973,4.025 -8.973,8.975 0,4.95 4.026,8.974 8.973,8.974 4.95,0 8.977,-4.024 8.977,-8.974 0,-4.95 -4.027,-8.975 -8.977,-8.975 z m 0,15.384 c -3.532,0 -6.409,-2.875 -6.409,-6.409 0,-3.535 2.877,-6.41 6.409,-6.41 3.535,0 6.411,2.875 6.411,6.41 0,3.534 -2.876,6.409 -6.411,6.409 z"
             inkscape:connector-curvature="0"
             style="fill:#ffffff" />
          <path
             id="path5485"
             d="m 23.588,15.501 v 0.01 h 8.047 c -2.375,-2.4 -5.273,-5.251 -5.99,-5.578 -1.257,-0.575 -3.966,1.462 -4.547,1.748 -0.532,0.283 -0.954,0.699 -1.043,1.236 l -2.112,5.927 -6.167,0.069 c -1.811,0.485 -0.465,2.065 -0.465,2.065 l 3.097,0.041 -0.295,1.405 -1.803,2.989 C 11.28,24.999 10.157,24.765 8.977,24.765 4.027,24.765 0,28.792 0,33.741 c 0,4.947 4.026,8.974 8.977,8.974 4.948,0 8.975,-4.026 8.975,-8.974 0,-2.853 -1.342,-5.393 -3.423,-7.038 l 2.005,-3.326 0.487,-2.322 2.41,0.03 c 0.479,-0.136 0.833,-0.538 0.912,-1.029 l 2.603,-4.074 z M 15.386,33.74 c 0,3.533 -2.875,6.409 -6.409,6.409 -3.534,0 -6.411,-2.876 -6.411,-6.409 0,-3.535 2.877,-6.411 6.411,-6.411 0.694,0 1.36,0.114 1.986,0.32 l -3.579,5.939 2.197,1.323 3.607,-5.989 c 1.344,1.175 2.198,2.897 2.198,4.818 z"
             inkscape:connector-curvature="0"
             style="fill:#ffffff" />
          <path
             id="path5487"
             d="m 32.24,23.139 c 0,0 2.468,-2.578 2.691,-2.968 0.225,-0.392 0.229,-0.872 0.007,-1.265 0,0 -0.725,-0.76 -1.771,-1.832 v 0.014 h -8.949 l 4.281,3.716 -6.367,9.947 c -0.184,0.317 -0.223,0.697 -0.104,1.045 l 2.563,7.692 3.072,-0.17 -1.741,-7.787 z"
             inkscape:connector-curvature="0"
             style="fill:#ffffff" />
          <circle
             id="circle5489"
             r="3.4349999"
             cy="7.3839998"
             cx="19.702999"
             style="fill:#ffffff" />
          <path
             id="path5491"
             d="M 32.845,5.919 C 31.785,5.175 30.479,5.13 29.722,5.885 l -1.484,1.487 c -0.756,0.756 -0.711,2.062 0.03,3.124 z"
             inkscape:connector-curvature="0"
             style="fill:#ffffff" />
          <path
             id="path5493"
             d="m 33.007,15.317 c 1.116,1.116 2.73,1.311 3.607,0.436 l 1.485,-1.488 c 0.877,-0.876 0.685,-2.491 -0.434,-3.606 l -4.081,-4.081 -4.659,4.658 z"
             inkscape:connector-curvature="0"
             style="fill:#ffffff" />
        </g>
        <g
           id="g5497"
           style="fill:#ffffff" />
        <g
           id="g5499"
           style="fill:#ffffff" />
        <g
           id="g5501"
           style="fill:#ffffff" />
        <g
           id="g5503"
           style="fill:#ffffff" />
        <g
           id="g5505"
           style="fill:#ffffff" />
        <g
           id="g5507"
           style="fill:#ffffff" />
        <g
           id="g5509"
           style="fill:#ffffff" />
        <g
           id="g5511"
           style="fill:#ffffff" />
        <g
           id="g5513"
           style="fill:#ffffff" />
        <g
           id="g5515"
           style="fill:#ffffff" />
        <g
           id="g5517"
           style="fill:#ffffff" />
        <g
           id="g5519"
           style="fill:#ffffff" />
        <g
           id="g5521"
           style="fill:#ffffff" />
        <g
           id="g5523"
           style="fill:#ffffff" />
        <g
           id="g5525"
           style="fill:#ffffff" />
      </g>
      <g
         id="g5529"
         style="fill:#ffffff" />
      <g
         id="g5531"
         style="fill:#ffffff" />
      <g
         id="g5533"
         style="fill:#ffffff" />
      <g
         id="g5535"
         style="fill:#ffffff" />
      <g
         id="g5537"
         style="fill:#ffffff" />
      <g
         id="g5539"
         style="fill:#ffffff" />
      <g
         id="g5541"
         style="fill:#ffffff" />
      <g
         id="g5543"
         style="fill:#ffffff" />
      <g
         id="g5545"
         style="fill:#ffffff" />
      <g
         id="g5547"
         style="fill:#ffffff" />
      <g
         id="g5549"
         style="fill:#ffffff" />
      <g
         id="g5551"
         style="fill:#ffffff" />
      <g
         id="g5553"
         style="fill:#ffffff" />
      <g
         id="g5555"
         style="fill:#ffffff" />
      <g
         id="g5557"
         style="fill:#ffffff" />
    </g>
  </g>
  <g
     id="icon-logo">
    <rect
       style="opacity:1;fill:#000000;fill-opacity:1;stroke:none;stroke-width:0.26458332;stroke-miterlimit:4;stroke-dasharray:none;stroke-opacity:0.94117647"
       id="rect5611"
       width="32"
       height="32"
       x="0"
       y="0" />
    <g
       id="g5792"
       transform="matrix(0.77498581,0,0,0.77498581,5.3156895,3.0643897)">
      <path
         sodipodi:nodetypes="cccc"
         inkscape:connector-curvature="0"
         id="path5774"
         d="m 23.422912,9.2841946 c -6.673016,-4.1271355 -12.713117,-4.1751388 -19.2686597,0 C 4.3276468,14.227863 3.7999932,22.578308 13.788583,27.138641 24.112354,22.238283 23.334112,13.834188 23.422912,9.2841946 Z"
         style="fill:none;fill-rule:evenodd;stroke:#ffffff;stroke-width:1px;stroke-linecap:butt;stroke-linejoin:miter;stroke-opacity:1" />
      <path
         inkscape:connector-curvature="0"
         id="path5776"
         d="M 13.435029,5.9254374 V 26.961864 c 0,0 10.69499,-3.270369 9.987883,-17.6776694 0,0 -3.447145,-2.8284271 -9.987883,-3.3587572 z"
         style="fill:#ffffff;fill-rule:evenodd;stroke:none;stroke-width:1px;stroke-linecap:butt;stroke-linejoin:miter;stroke-opacity:1" />
      <path
         inkscape:connector-curvature="0"
         id="path5778"
         d="M 4.7729708,15.117826 13.700194,6.1906024"
         style="fill:none;fill-rule:evenodd;stroke:#ffffff;stroke-width:1px;stroke-linecap:butt;stroke-linejoin:miter;stroke-opacity:1" />
      <path
         inkscape:connector-curvature="0"
         id="path5780"
         d="M 6.2755727,20.332738 14.053747,12.554563"
         style="fill:none;fill-rule:evenodd;stroke:#ffffff;stroke-width:1px;stroke-linecap:butt;stroke-linejoin:miter;stroke-opacity:1" />
      <path
         inkscape:connector-curvature="0"
         id="path5782"
         d="m 8.5736697,23.691495 c 0.4419418,-0.53033 5.6126603,-5.61266 5.6126603,-5.61266"
         style="fill:none;fill-rule:evenodd;stroke:#ffffff;stroke-width:1px;stroke-linecap:butt;stroke-linejoin:miter;stroke-opacity:1" />
      <path
         inkscape:connector-curvature="0"
         id="path5784"
         d="m 11.932427,25.636039 2.342291,-2.342291"
         style="fill:none;fill-rule:evenodd;stroke:#ffffff;stroke-width:1px;stroke-linecap:butt;stroke-linejoin:miter;stroke-opacity:1" />
    </g>
  </g>
</svg>
